HIERARCHY
ROOT Hips
{
 OFFSET 0.000000 0.000000 0.000000
 CHANNELS 6 Xposition Yposition Zposition Yrotation Xrotation Zrotation
 JOINT Chest
 {
  OFFSET 0.000000 9.585900 0.002600
  CHANNELS 3 Yrotation Xrotation Zrotation
  JOINT Chest2
  {
   OFFSET 0.000000 9.601200 -0.005300
   CHANNELS 3 Yrotation Xrotation Zrotation
   JOINT Chest3
   {
    OFFSET 0.000000 9.561800 0.000000
    CHANNELS 3 Yrotation Xrotation Zrotation
    JOINT Chest4
    {
     OFFSET 0.000000 9.552100 0.000000
     CHANNELS 3 Yrotation Xrotation Zrotation
     JOINT Neck
     {
      OFFSET 0.000000 14.453000 0.000000
      CHANNELS 3 Yrotation Xrotation Zrotation
      JOINT Head
      {
       OFFSET 0.000000 8.936500 -0.011300
       CHANNELS 3 Yrotation Xrotation Zrotation
       End Site
       {
        OFFSET 0.000000 17.073600 -0.006000
       }
      }
     }
     JOINT RightCollar
     {
      OFFSET -2.921100 9.558500 0.000000
      CHANNELS 3 Yrotation Xrotation Zrotation
      JOINT RightShoulder
      {
       OFFSET -13.519700 0.000000 0.000000
       CHANNELS 3 Yrotation Xrotation Zrotation
       JOINT RightElbow
       {
        OFFSET 0.000000 -29.696600 0.000000
        CHANNELS 3 Yrotation Xrotation Zrotation
        JOINT RightWrist
        {
         OFFSET 0.000000 -24.004700 0.000000
         CHANNELS 3 Yrotation Xrotation Zrotation
         End Site
         {
          OFFSET 0.000000 -17.728500 0.000000
         }
        }
       }
      }
     }
     JOINT LeftCollar
     {
      OFFSET 2.921100 9.558500 0.000000
      CHANNELS 3 Yrotation Xrotation Zrotation
      JOINT LeftShoulder
      {
       OFFSET 13.519700 0.000000 0.000000
       CHANNELS 3 Yrotation Xrotation Zrotation
       JOINT LeftElbow
       {
        OFFSET 0.000000 -29.696600 0.000000
        CHANNELS 3 Yrotation Xrotation Zrotation
        JOINT LeftWrist
        {
         OFFSET 0.000000 -24.004700 0.000000
         CHANNELS 3 Yrotation Xrotation Zrotation
         End Site
         {
          OFFSET 0.000000 -17.728500 0.000000
         }
        }
       }
      }
     }
    }
   }
  }
 }
 JOINT RightHip
 {
  OFFSET -7.771700 -0.012900 -0.001300
  CHANNELS 3 Yrotation Xrotation Zrotation
  JOINT RightKnee
  {
   OFFSET 0.000000 -40.869800 0.001200
   CHANNELS 3 Yrotation Xrotation Zrotation
   JOINT RightAnkle
   {
    OFFSET 0.000000 -39.717900 0.002100
    CHANNELS 3 Yrotation Xrotation Zrotation
    JOINT RightToe
    {
     OFFSET 0.000000 -4.965400 11.033500
     CHANNELS 3 Yrotation Xrotation Zrotation
     End Site
     {
      OFFSET 0.000000 -1.423100 5.872300
     }
    }
   }
  }
 }
 JOINT LeftHip
 {
  OFFSET 7.771700 -0.012900 -0.001300
  CHANNELS 3 Yrotation Xrotation Zrotation
  JOINT LeftKnee
  {
   OFFSET 0.000000 -40.869800 0.001200
   CHANNELS 3 Yrotation Xrotation Zrotation
   JOINT LeftAnkle
   {
    OFFSET 0.000000 -39.717900 0.002100
    CHANNELS 3 Yrotation Xrotation Zrotation
    JOINT LeftToe
    {
     OFFSET 0.000000 -4.965400 11.033500
     CHANNELS 3 Yrotation Xrotation Zrotation
     End Site
     {
      OFFSET 0.000000 -1.423100 5.872300
     }
    }
   }
  }
 }
}
MOTION
Frames: 9
Frame Time: 0.008333
-94.974256 55.612144 -50.950447 -172.023895 -17.751695 -0.753669 -1.418939 15.587058 0.403543 -0.121047 1.491831 0.085266 -0.207419 2.525055 0.158546 -1.064315 13.904020 0.727026 -1.972982 12.987050 -4.547048 -1.077731 -12.030438 -4.386788 2.405654 -4.278565 0.966376 12.405390 -12.279731 -7.257842 -102.580860 -52.706993 145.479847 -13.214669 -24.367277 -13.275322 -7.958954 -4.364380 1.273995 -6.347904 -20.193364 2.303275 87.114531 -53.708612 -135.618909 1.784009 -29.764646 16.224895 -1.768047 -58.188408 6.955219 -37.556335 84.881818 -43.722820 -9.507646 -18.074129 15.289451 0.152340 -0.325131 0.038683 10.357434 -54.130930 -12.303412 88.300097 71.067029 89.512308 0.463778 -18.954107 -2.314388 0.108089 0.387549 0.050585
-94.975214 55.612571 -50.953560 -172.027900 -17.748757 -0.751531 -1.415847 15.589591 0.407125 -0.123610 1.494537 0.087026 -0.205863 2.524554 0.160869 -1.072186 13.906468 0.739007 -2.018014 12.946910 -4.568394 -1.053229 -12.024182 -4.401687 2.409871 -4.277234 0.955148 12.404744 -12.285442 -7.266935 -102.542176 -52.698706 145.453085 -13.233497 -24.414472 -13.306951 -7.955751 -4.367601 1.262099 -6.338305 -20.195146 2.297998 87.115225 -53.720515 -135.600424 1.799961 -29.745681 16.219791 -1.741000 -58.190188 6.936381 -37.596177 84.878340 -43.751425 -9.511940 -18.066000 15.291807 0.134442 -0.304522 0.043353 10.363828 -54.133497 -12.304425 88.315008 71.067413 89.525231 0.465855 -18.956829 -2.313908 0.105194 0.385023 0.049966
-94.976712 55.612920 -50.956681 -172.031945 -17.744947 -0.747878 -1.412597 15.587356 0.406298 -0.123545 1.499588 0.092158 -0.206833 2.527385 0.165660 -1.074570 13.898195 0.730409 -2.034703 12.934504 -4.567047 -1.102130 -12.069424 -4.411171 2.405982 -4.270758 0.961718 12.403773 -12.290941 -7.275620 -102.502207 -52.687554 145.419669 -13.233951 -24.427594 -13.316722 -7.963010 -4.360145 1.266192 -6.325363 -20.170428 2.302479 87.115210 -53.732072 -135.588844 1.813177 -29.759206 16.193825 -1.724921 -58.194880 6.926444 -37.680311 84.876464 -43.835025 -9.502209 -18.052707 15.294922 0.126505 -0.317204 0.043450 10.376209 -54.136514 -12.307697 88.331670 71.075189 89.541898 0.459786 -18.959231 -2.311481 0.111752 0.380785 0.051422
-94.979282 55.613147 -50.959549 -172.035176 -17.739779 -0.739670 -1.411274 15.592002 0.410940 -0.125241 1.510640 0.103747 -0.207037 2.514445 0.151964 -1.080373 13.900288 0.734670 -2.047294 12.914800 -4.574419 -1.116973 -12.092301 -4.421740 2.409326 -4.277935 0.949540 12.403023 -12.293877 -7.278208 -102.459406 -52.677255 145.380072 -13.234818 -24.437934 -13.328665 -7.961385 -4.368758 1.254809 -6.317243 -20.157005 2.307784 87.122882 -53.729731 -135.600485 1.820492 -29.744964 16.199356 -1.703982 -58.202255 6.908508 -37.762349 84.876300 -43.918274 -9.488131 -18.038243 15.294551 0.124580 -0.319902 0.048558 10.393626 -54.135407 -12.321175 88.330630 71.081269 89.539594 0.459197 -18.969184 -2.309372 0.114563 0.385916 0.053070
-94.981305 55.613123 -50.961824 -172.034837 -17.730436 -0.736799 -1.414296 15.604451 0.427160 -0.125635 1.500419 0.094028 -0.205750 2.505566 0.145489 -1.081530 13.909362 0.751467 -2.062315 12.894477 -4.585503 -1.110023 -12.093134 -4.433244 2.411463 -4.278522 0.939085 12.408784 -12.305125 -7.291391 -102.414842 -52.667470 145.329609 -13.236548 -24.443666 -13.336900 -7.966786 -4.369233 1.245917 -6.305351 -20.163167 2.303895 87.119418 -53.730759 -135.594613 1.830572 -29.734282 16.200867 -1.692883 -58.212216 6.900415 -37.839049 84.872711 -43.996505 -9.477484 -18.025708 15.292765 0.123989 -0.319313 0.055021 10.403761 -54.142502 -12.330116 88.331713 71.085893 89.539461 0.460876 -18.972125 -2.307222 0.112680 0.386876 0.053664
-94.982968 55.612847 -50.963383 -172.035272 -17.716942 -0.736274 -1.413769 15.603308 0.434992 -0.126325 1.501087 0.094722 -0.210807 2.505003 0.147552 -1.091884 13.928261 0.772769 -2.063449 12.854834 -4.611289 -1.122599 -12.115861 -4.441561 2.413538 -4.282447 0.928098 12.440394 -12.320472 -7.326373 -102.411159 -52.659984 145.313694 -13.245339 -24.444119 -13.345778 -7.956802 -4.393479 1.224362 -6.295485 -20.167119 2.300017 87.090042 -53.734359 -135.566947 1.828201 -29.748542 16.192981 -1.685856 -58.226040 6.896175 -37.863423 84.871900 -44.020843 -9.466112 -18.014107 15.285673 0.128591 -0.302012 0.061027 10.411824 -54.154783 -12.335411 88.333355 71.091907 89.538582 0.464873 -18.974940 -2.303462 0.111049 0.388976 0.052825
-94.984580 55.612340 -50.964158 -172.038462 -17.699562 -0.735012 -1.409418 15.599463 0.442063 -0.126591 1.501763 0.095303 -0.212744 2.504525 0.150343 -1.092390 13.932071 0.776248 -2.068301 12.831828 -4.617428 -1.133658 -12.143368 -4.443960 2.408633 -4.285057 0.924216 12.454595 -12.327793 -7.344608 -102.409274 -52.649795 145.303578 -13.250544 -24.433781 -13.358888 -7.962637 -4.398135 1.225963 -6.297795 -20.148233 2.309425 87.065069 -53.732909 -135.526871 1.835252 -29.753022 16.168856 -1.680769 -58.243887 6.894618 -37.847431 84.871700 -44.008446 -9.449205 -18.002490 15.277164 0.129197 -0.299772 0.066544 10.420656 -54.171674 -12.341193 88.335810 71.097226 89.537168 0.472165 -18.976619 -2.299233 0.107140 0.390113 0.051413
-94.985865 55.612003 -50.965351 -172.032521 -17.685535 -0.738683 -1.413327 15.599600 0.450108 -0.126945 1.498487 0.094198 -0.211084 2.525407 0.160693 -1.096748 13.918298 0.773603 -2.071812 12.811789 -4.626137 -1.136657 -12.203019 -4.439439 2.405576 -4.290028 0.919021 12.468207 -12.324670 -7.350318 -102.404060 -52.644796 145.287548 -13.240482 -24.422762 -13.363547 -7.971790 -4.402386 1.234619 -6.290146 -20.152767 2.303057 87.043615 -53.733361 -135.490763 1.865014 -29.704485 16.172588 -1.674808 -58.258159 6.887205 -37.867598 84.874130 -44.023246 -9.442665 -17.996635 15.269272 0.130481 -0.294856 0.071438 10.419083 -54.189955 -12.344387 88.347803 71.096759 89.546414 0.475503 -18.969607 -2.293877 0.100429 0.384205 0.048144
-94.987443 55.611887 -50.967010 -172.028883 -17.675732 -0.739651 -1.415983 15.600687 0.454526 -0.127590 1.491117 0.091359 -0.210775 2.534087 0.164676 -1.096561 13.926539 0.780938 -2.073497 12.784796 -4.631236 -1.130910 -12.223898 -4.443355 2.404405 -4.305446 0.908273 12.469548 -12.324155 -7.349205 -102.390125 -52.654727 145.230791 -13.255392 -24.419461 -13.313816 -7.971444 -4.405319 1.240830 -6.288095 -20.169262 2.292656 87.010026 -53.736878 -135.439455 1.875346 -29.676661 16.157893 -1.646933 -58.265765 6.870801 -37.903304 84.869605 -44.048239 -9.469740 -17.995396 15.270845 0.147058 -0.284950 0.078912 10.420272 -54.201029 -12.348729 88.353416 71.091152 89.547534 0.476090 -18.967271 -2.287100 0.092335 0.382540 0.043868
